<?xml version="1.0" encoding="UTF-8"?>
<svg id="Capa_1" data-name="Capa 1" xmlns="http://www.w3.org/2000/svg" viewBox="0 0 465.95 467.47">
  <defs>
    <style>
      .cls-1 {
        fill: #35a8e0;
        stroke-width: 0px;
      }
    </style>
  </defs>
  <g>
    <path class="cls-1" d="M40.17,176.72l13.18-1.73-11.32,61.91-13.18,1.73,11.32-61.91Z"/>
    <path class="cls-1" d="M104.39,197.39c0,1.73-.16,3.65-.57,5.69l-4.85,26.36-12.62,1.65,4.69-25.48c.24-1.15.32-2.29.32-3.24,0-4.75-2.43-7.11-7.44-6.45-6.39.84-10.84,5.22-12.38,13.54l-4.37,24.14-12.62,1.65,8.65-47.58,11.97-1.57-.97,5.13c3.96-4.4,8.98-6.87,14.32-7.57,9.54-1.25,15.85,3.45,15.85,13.72Z"/>
    <path class="cls-1" d="M127.6,209.28c-.16.71-.16,1.32-.16,1.92,0,2.85,1.46,4.3,4.61,3.88,1.7-.22,3.48-1.06,5.1-2.31l1.86,9.34c-3.15,2.49-7.04,3.68-10.84,4.18-8.09,1.06-13.59-3.05-13.59-11.17,0-1.3.16-2.7.4-4.11l3.48-19.19-6.71.88,1.94-10.61,6.71-.88,2.1-11.59,12.62-1.65-2.1,11.59,10.84-1.42-1.94,10.61-10.84,1.42-3.48,19.1Z"/>
    <path class="cls-1" d="M190.77,197.81l-33.32,4.37c.4,6.25,4.04,8.97,11.24,8.02,4.45-.58,8.65-2.69,11.65-5.84l5.26,8.2c-5.02,4.97-11.57,7.73-18.2,8.6-13.59,1.78-22.24-5.29-22.24-17.89,0-15.54,10.51-28.4,25.64-30.38,12.7-1.66,20.71,5.31,20.71,17.74,0,2.5-.32,4.96-.73,7.17ZM158.33,194.2l21.6-2.83c0-6.13-3.88-9.07-9.71-8.31-6.07.79-10.19,5.13-11.89,11.14Z"/>
    <path class="cls-1" d="M248.6,163.38l-7.2,39.62c-3.32,18.3-12.78,26.88-27.82,28.85-8.49,1.11-15.61-.11-20.71-3.41l5.99-10.54c3.4,2.58,9.14,3.81,15.29,3,8.74-1.14,12.7-5.81,14.24-13.87l.32-2.03c-3.4,3.81-7.93,6.22-13.26,6.92-10.76,1.41-19.25-4.81-19.25-16.99,0-14.24,10.35-26.74,24.27-28.56,6.47-.85,12.05.84,14.72,6.36l1.38-7.78,12.05-1.58ZM231.45,185.22c0-5.61-3.56-8.68-9.79-7.87-7.44.98-12.78,7.29-12.78,15.23,0,5.61,3.72,8.66,9.95,7.85,7.36-.96,12.62-7.27,12.62-15.21Z"/>
    <path class="cls-1" d="M287.5,157.59l-2.27,12.73c-1.13.06-1.86.07-2.91.21-7.44.98-12.21,5.31-13.83,14.24l-4.21,23-12.62,1.65,8.65-47.58,11.97-1.57-1.05,5.66c3.88-5,9.22-7.42,16.26-8.35Z"/>
    <path class="cls-1" d="M338.62,151.58l-8.65,47.58-11.97,1.57.81-4.68c-3.48,3.82-8.01,6.32-13.35,7.02-10.11,1.33-18.76-5.14-18.76-18.34,0-15.63,10.6-28.41,24.02-30.17,6.31-.83,11.32.67,14.15,5.14l1.13-6.45,12.62-1.65ZM322.12,174.46c0-6.3-3.64-9.8-9.95-8.97-7.44.98-12.78,7.89-12.78,16.95,0,6.3,3.64,9.8,9.95,8.97,7.44-.98,12.78-7.89,12.78-16.95Z"/>
  </g>
  <g>
    <path class="cls-1" d="M30.92,256.98l18.09-2.37-12.65,68.93,38.95-5.11-3,16.03-56.93,7.46,15.54-84.95Z"/>
    <path class="cls-1" d="M81.97,305.6c0-21.2,15.09-39.05,36.07-41.8,18.31-2.4,30.07,7.31,30.07,24.6,0,21.2-14.98,39.04-36.07,41.8-18.2,2.39-30.07-7.43-30.07-24.6ZM130.57,291.53c0-8.65-4.88-13.45-13.54-12.32-10.21,1.34-17.53,10.83-17.53,23.26,0,8.65,4.99,13.44,13.65,12.3,10.1-1.32,17.42-10.81,17.42-23.25ZM128.57,238.14l19.09-2.5-21.75,19.91-13.98,1.83,16.65-19.24Z"/>
    <path class="cls-1" d="M224.68,278.37c0,21.44-14.54,38.98-33.07,41.41-8.66,1.13-15.43-.94-19.31-6.94l-5.88,32.28-17.31,2.27,16.2-88.82,16.42-2.15-1.22,6.44c4.77-5.24,10.99-8.67,18.31-9.63,13.87-1.82,25.86,7.03,25.86,25.16ZM207.14,281.5c0-8.65-4.99-13.44-13.65-12.31-10.1,1.32-17.42,10.81-17.42,23.25,0,8.65,4.88,13.45,13.54,12.32,10.21-1.34,17.53-10.83,17.53-23.26Z"/>
    <path class="cls-1" d="M293.81,278.54l-45.72,5.99c.55,8.57,5.55,12.3,15.43,11.01,6.1-.8,11.87-3.69,15.98-8.02l7.21,11.25c-6.88,6.82-15.87,10.61-24.97,11.8-18.64,2.44-30.52-7.25-30.52-24.54,0-21.32,14.43-38.96,35.18-41.68,17.42-2.28,28.41,7.29,28.41,24.35,0,3.43-.44,6.81-1,9.84ZM249.31,273.6l29.63-3.88c0-8.41-5.33-12.45-13.32-11.4-8.32,1.09-13.98,7.04-16.31,15.28Z"/>
    <path class="cls-1" d="M357.07,244.55l-36.84,43.21,30.63-4.02-2.66,14.56-53.27,6.98,2.11-11.41,36.84-43.2-28.74,3.77,2.66-14.56,51.27-6.72-2,11.4Z"/>
  </g>
  <path class="cls-1" d="M416.33,80.45c-.29,1.94-.43,3.88-.5,5.68-.07,1.58-.58,3.09-1.58,4.32-6.98,8.78-14.53,21.51-14.1,25.61.29,2.73-1.01,5.32-3.24,6.76-.07.07-12.23,8.34-13.38,21.22-.22,2.16-1.37,4.1-3.17,5.32-1.22.79-2.59,1.22-4.03,1.22-.72,0-1.37-.07-2.09-.29l-41.87-12.59c-3.45-1.01-5.61-4.46-5.11-7.99.58-3.52,3.6-6.11,7.12-6.11h.14c15.97,0,29.85-2.52,33.02-5.83,4.1-4.32,11.94-23.45,17.7-39.35-11.37,2.23-30.21,13.6-38.7,18.78-1.22.72-2.45,1.08-3.74,1.08-2.23,0-4.39-1.01-5.75-2.95-2.23-2.95-1.87-7.12.94-9.57,1.29-1.22,13.88-18.99,42.3-32.37-33.09-34.53-95.72-46.34-109.5-32.01-14.26,14.84-28.33,15.82-33.5,20.21-5.11,4.39,0,8.78,0,8.78,33.02-3.31,39.79,5.48,39.79,5.48-16.78.37-34.75,8.33-34.75,8.33-6.28,2.57-3.87,18.23,9.46,39.62,9.23,14.81,23.7,32.36,44.16,50.21,9.21-6.2,21.46-7.65,25.98-3.79l2.98-1.75,18.95-1.05-2.81,30.35c56.32,40.93,27.52,101.71,23.35,152.28,0,0,11.87,15.61,58.77-52.08,49.78-71.93,22.01-149.41-6.83-197.53ZM308.64,47.08c-4.75,0-8.56-3.81-8.56-8.49s3.81-8.49,8.56-8.49,8.49,3.81,8.49,8.49-3.81,8.49-8.49,8.49Z"/>
  <path class="cls-1" d="M342.79,91.07s40.1-36.31,74.43-43.98c0,0-8.08,22.24-8.58,38.84,0,0-16.66,20.9-15.65,30.87,0,0-15.15,9.88-16.66,26.59l-41.91-12.58s30.3.45,38.38-8.11c8.08-8.56,22.22-50.31,22.22-50.31-9.3-5.59-29.75,5.07-52.21,18.67Z"/>
  <path class="cls-1" d="M342.79,91.07s40.1-36.31,74.43-43.98c0,0-8.08,22.24-8.58,38.84,0,0-16.66,20.9-15.65,30.87,0,0-15.15,9.88-16.66,26.59l-41.91-12.58s30.3.45,38.38-8.11c8.08-8.56,22.22-50.31,22.22-50.31-9.3-5.59-29.75,5.07-52.21,18.67Z"/>
  <path class="cls-1" d="M359.06,326.2s-36.98,28.42-41.93,56.84c-4.95,28.42,5.93,45.95,4.12,62.28-1.81,16.33-45.35,1.81-47.77-31.44-2.42-33.26-18.14-33.86-26.6-31.44s-27.02-22.11-17.53-34.47c9.48-12.35,8.7-18.74,1.21-26s-1.21-12.7-1.21-12.7c0,0,9.67,15.12,32.05,12.09,22.37-3.02,24.79-12.09,24.79-12.09l3.02,8.59,64.09-4.96,5.77-9.67v22.98Z"/>
  <path class="cls-1" d="M361.9,33.96s19.65,11.56,24.28,15.8c0,0,16.57-3.85,22.73-4.24,6.17-.39-47.01-11.56-47.01-11.56Z"/>
  <path class="cls-1" d="M421.24,53.4l-4.02,22.18,12.11,19.66s-.77-11.57,5.01-11.57,13.49-2.31,12.72-6.17,3.51-8.97,3.51-8.97l-29.32-15.14Z"/>
</svg>